<svg width="31" height="22" viewBox="0 0 31 22" fill="none" xmlns="http://www.w3.org/2000/svg">
<path d="M20.5955 0.0379273C18.3374 0.313629 16.355 1.23263 14.8977 2.66366C14.5695 2.99187 14.2281 3.35948 14.1231 3.49076L13.9393 3.71395L13.3879 3.47763C12.6527 3.16255 11.9963 2.95249 11.156 2.78182C10.5653 2.66366 10.2633 2.6374 9.19987 2.6374C8.13645 2.6374 7.83449 2.66366 7.25683 2.78182C5.23502 3.1888 3.60706 4.04217 2.25481 5.39442C1.04698 6.60225 0.351159 7.90199 0.0754571 9.47743C-0.0427008 10.1076 -0.0164434 11.4073 0.114843 12.0244C0.718761 14.8864 2.87186 17.1577 5.95709 18.1817C6.70543 18.4312 7.90014 18.6675 8.41215 18.6675C8.97668 18.6675 9.09484 18.7463 10.8803 20.046C11.8387 20.7549 12.6921 21.3457 12.784 21.3851C13.0072 21.477 13.2566 21.372 13.3748 21.1619C13.4667 21.0175 13.4536 20.8731 13.2435 19.5077C13.1253 18.6806 13.0334 17.9979 13.0597 17.9848C13.086 17.9585 13.2566 17.8798 13.4404 17.801C14.4645 17.3809 15.8692 16.3306 16.6044 15.4772C16.8276 15.2015 17.0377 14.9783 17.0639 14.9783C17.1033 14.9783 17.9042 15.3328 17.9698 15.3722C17.9698 15.3722 17.891 16.0024 17.7729 16.7507C17.6547 17.499 17.5628 18.1949 17.5628 18.2999C17.5628 18.5493 17.8123 18.7725 18.0617 18.7725C18.2324 18.7725 18.5737 18.5493 20.0967 17.4334L21.9347 16.0943L22.4598 16.0549C26.2803 15.7661 29.4049 13.6261 30.5864 10.4752C31.1379 9.03106 31.1379 6.99611 30.5864 5.56509C29.5362 2.76869 26.8579 0.681231 23.5364 0.116699C22.8274 0.0116698 21.2126 -0.0408447 20.5955 0.0379273ZM22.7093 1.08822C25.3087 1.35079 27.6194 2.67679 28.9191 4.65921C30.2188 6.6679 30.2714 9.17547 29.0504 11.1973C27.7113 13.4292 25.2562 14.8208 22.3417 15.0309C22.0003 15.0571 21.6327 15.1096 21.5277 15.1621C21.4226 15.2015 20.7531 15.661 20.0573 16.173C19.3615 16.6851 18.7969 17.092 18.7838 17.0789C18.7707 17.0658 18.8232 16.6457 18.9019 16.1468C19.112 14.847 19.0726 14.742 18.193 14.3613C17.8254 14.1906 17.6285 14.0856 17.6416 14.0199C17.6416 13.9674 17.7466 13.7049 17.8648 13.4292C18.8494 11.1973 18.5343 8.50591 17.0508 6.41845C16.6701 5.89331 15.8298 5.02682 15.3047 4.61983C15.0815 4.44916 14.8846 4.26535 14.8846 4.2391C14.8846 4.12094 15.6986 3.2807 16.1974 2.89997C17.0377 2.25667 17.6941 1.88907 18.6656 1.56085C19.9916 1.08822 21.2782 0.930676 22.7093 1.08822ZM10.5259 3.74021C12.4558 4.01591 14.1362 4.84302 15.436 6.15588C16.4075 7.1274 16.972 8.16457 17.2609 9.43804C17.4184 10.147 17.379 11.3811 17.1821 12.1294C16.6176 14.2825 14.9108 16.1074 12.6133 17.0133C11.8912 17.289 11.8256 17.4728 12.0357 18.7331C12.1144 19.2583 12.1801 19.6915 12.1669 19.6915C12.1669 19.7046 11.5499 19.2714 10.8278 18.7331C10.0926 18.1949 9.43619 17.7485 9.35742 17.7222C9.26552 17.7091 8.87165 17.6566 8.45154 17.6303C3.41013 17.1971 0.0491997 13.1403 1.25704 8.95228C1.67715 7.495 2.7537 6.06398 4.13221 5.1581C5.35318 4.34413 6.42973 3.96339 8.21522 3.68769C8.60908 3.63518 9.94821 3.66144 10.5259 3.74021Z" fill="#A1A1A1"/>
<path d="M21.6983 4.25224C21.5145 4.43604 19.4008 10.8297 19.4665 11.0266C19.519 11.2367 19.7684 11.4336 19.9785 11.4336C20.2936 11.4336 20.3855 11.3023 20.7137 10.3046L21.0288 9.35929H22.0528H23.0768L23.3657 10.2652C23.5495 10.8297 23.7201 11.2104 23.812 11.3023C23.9827 11.473 24.2453 11.4861 24.4422 11.3417C24.7704 11.1185 24.7836 11.171 23.6151 7.67882C22.9587 5.69639 22.4861 4.3704 22.4073 4.2785C22.2497 4.10783 21.869 4.0947 21.6983 4.25224ZM22.4073 7.36373L22.7224 8.30899H22.0659H21.4095L21.7246 7.36373C21.8953 6.83859 22.0528 6.41847 22.0791 6.41847C22.1053 6.41847 22.2366 6.83859 22.4073 7.36373Z" fill="#A1A1A1"/>
<path d="M7.66367 6.53665C7.50613 6.60229 7.38797 6.86486 7.26981 7.33749C7.23042 7.50817 7.16478 7.66571 7.11227 7.69197C7.05975 7.71823 6.74466 7.67884 6.40332 7.6132C5.6156 7.48191 5.51057 7.48191 5.3399 7.67884C5.16923 7.87577 5.1561 8.13834 5.32677 8.33527C5.45806 8.50594 5.90443 8.6241 6.63964 8.716L7.00724 8.75539L6.96785 9.21489C6.95472 9.46434 6.92847 9.77942 6.92847 9.92384C6.92847 10.1733 6.92847 10.1733 6.42958 10.449C4.90665 11.2892 4.47341 12.5758 5.37928 13.5736C5.74689 13.9806 6.04885 14.0988 6.65276 14.0594C7.46674 14.0069 8.3201 13.4686 9.10782 12.5233C9.48855 12.0638 10.1187 11.066 10.2106 10.7641C10.25 10.6459 10.2894 10.6328 10.4469 10.659C10.7752 10.7247 11.169 11.0004 11.3528 11.3023C11.576 11.6568 11.6023 12.1688 11.4053 12.5364C11.1821 12.9697 10.4995 13.3767 9.69861 13.5342C9.14721 13.6524 8.91089 14.0988 9.23911 14.4532C9.39665 14.637 9.63297 14.637 10.1581 14.5057C11.1821 14.2432 12.0486 13.6655 12.3637 13.0091C13.007 11.7093 12.3112 10.1339 10.9327 9.71378C10.7095 9.64814 10.6833 9.62188 10.7095 9.51685C10.8933 8.95232 10.355 8.51907 9.9218 8.87355C9.8299 8.93919 9.75113 9.08361 9.72487 9.17551C9.67235 9.43808 9.54107 9.54311 9.26537 9.54311C9.02905 9.54311 8.29385 9.67439 8.08379 9.75317C7.99189 9.79255 7.97876 9.75317 8.00501 9.31992C8.03127 9.04422 8.07066 8.79477 8.11004 8.75539C8.1363 8.716 8.26759 8.67662 8.38575 8.67662C8.93715 8.67662 11.0377 8.2565 11.5498 8.03331C11.9567 7.86264 11.9699 7.32437 11.576 7.12744C11.3791 7.03553 11.3397 7.03554 10.6833 7.20621C9.98744 7.39001 8.68771 7.63945 8.42513 7.63945C8.28072 7.63945 8.28072 7.63945 8.37262 7.33749C8.47765 6.96989 8.43826 6.77296 8.2282 6.60229C8.05753 6.471 7.89999 6.44475 7.66367 6.53665ZM9.02905 10.7772C8.87151 11.0923 8.3201 11.8669 8.26759 11.8669C8.24133 11.8669 8.21507 11.8538 8.21507 11.8144C8.21507 11.7881 8.17569 11.578 8.12317 11.3417C8.07066 11.1054 8.05753 10.8954 8.08379 10.8691C8.12317 10.8297 8.96341 10.5934 9.09469 10.5803C9.10782 10.5803 9.08156 10.6722 9.02905 10.7772ZM7.17791 11.9063C7.26981 12.2345 7.34858 12.5496 7.37484 12.6021C7.42735 12.7334 6.86282 13.0222 6.54773 13.0222C6.0751 13.0222 5.81253 12.5496 6.03572 12.1163C6.12762 11.9325 6.87595 11.3155 6.98098 11.3023C7.00724 11.3155 7.08601 11.5781 7.17791 11.9063Z" fill="#A1A1A1"/>
<path d="M2 19L29 2" stroke="#A1A1A1" stroke-width="2" stroke-linecap="round"/>
</svg>
