<svg width="31" height="22" viewBox="0 0 31 22" fill="none" xmlns="http://www.w3.org/2000/svg">
<path d="M20.5955 0.0379273C18.3374 0.313629 16.355 1.23263 14.8977 2.66366C14.5695 2.99187 14.2281 3.35948 14.1231 3.49076L13.9393 3.71395L13.3879 3.47763C12.6527 3.16255 11.9963 2.95249 11.156 2.78182C10.5653 2.66366 10.2633 2.6374 9.19987 2.6374C8.13645 2.6374 7.83449 2.66366 7.25683 2.78182C5.23502 3.1888 3.60707 4.04217 2.25481 5.39442C1.04698 6.60225 0.351159 7.90199 0.0754571 9.47743C-0.0427008 10.1076 -0.0164434 11.4073 0.114843 12.0244C0.718761 14.8864 2.87186 17.1577 5.95709 18.1817C6.70543 18.4312 7.90014 18.6675 8.41215 18.6675C8.97669 18.6675 9.09484 18.7463 10.8803 20.046C11.8387 20.7549 12.6921 21.3457 12.784 21.3851C13.0072 21.477 13.2566 21.372 13.3748 21.1619C13.4667 21.0175 13.4536 20.8731 13.2435 19.5077C13.1253 18.6806 13.0334 17.9979 13.0597 17.9848C13.086 17.9585 13.2566 17.8798 13.4404 17.801C14.4645 17.3809 15.8692 16.3306 16.6044 15.4772C16.8276 15.2015 17.0377 14.9783 17.0639 14.9783C17.1033 14.9783 17.9042 15.3328 17.9698 15.3722C17.9698 15.3722 17.891 16.0024 17.7729 16.7507C17.6547 17.499 17.5628 18.1949 17.5628 18.2999C17.5628 18.5493 17.8123 18.7725 18.0617 18.7725C18.2324 18.7725 18.5737 18.5493 20.0967 17.4334L21.9347 16.0943L22.4598 16.0549C26.2803 15.7661 29.4049 13.6261 30.5864 10.4752C31.1379 9.03105 31.1379 6.99611 30.5864 5.56509C29.5362 2.76869 26.8579 0.681231 23.5364 0.116699C22.8274 0.0116698 21.2126 -0.0408446 20.5955 0.0379273ZM22.7093 1.08822C25.3087 1.35079 27.6194 2.67679 28.9191 4.65921C30.2188 6.6679 30.2714 9.17547 29.0504 11.1973C27.7113 13.4292 25.2562 14.8208 22.3417 15.0308C22.0003 15.0571 21.6327 15.1096 21.5277 15.1621C21.4226 15.2015 20.7531 15.661 20.0573 16.173C19.3615 16.6851 18.7969 17.092 18.7838 17.0789C18.7707 17.0658 18.8232 16.6457 18.9019 16.1468C19.112 14.847 19.0726 14.742 18.193 14.3613C17.8254 14.1906 17.6285 14.0856 17.6416 14.0199C17.6416 13.9674 17.7466 13.7049 17.8648 13.4292C18.8494 11.1973 18.5343 8.50591 17.0508 6.41845C16.6701 5.89331 15.8298 5.02682 15.3047 4.61983C15.0815 4.44915 14.8846 4.26535 14.8846 4.2391C14.8846 4.12094 15.6986 3.2807 16.1974 2.89997C17.0377 2.25667 17.6941 1.88907 18.6656 1.56085C19.9916 1.08822 21.2782 0.930676 22.7093 1.08822ZM10.5259 3.74021C12.4558 4.01591 14.1362 4.84301 15.436 6.15588C16.4075 7.1274 16.972 8.16456 17.2609 9.43804C17.4184 10.147 17.379 11.3811 17.1821 12.1294C16.6176 14.2825 14.9108 16.1074 12.6133 17.0133C11.8912 17.289 11.8256 17.4728 12.0357 18.7331C12.1144 19.2583 12.1801 19.6915 12.1669 19.6915C12.1669 19.7046 11.5499 19.2714 10.8278 18.7331C10.0926 18.1949 9.43619 17.7485 9.35742 17.7222C9.26552 17.7091 8.87166 17.6566 8.45154 17.6303C3.41013 17.1971 0.0491997 13.1403 1.25704 8.95228C1.67715 7.495 2.7537 6.06398 4.13221 5.1581C5.35318 4.34413 6.42973 3.96339 8.21522 3.68769C8.60908 3.63518 9.94821 3.66144 10.5259 3.74021Z" fill="black"/>
<path d="M21.6983 4.25218C21.5145 4.43598 19.4008 10.8296 19.4665 11.0266C19.519 11.2366 19.7684 11.4336 19.9785 11.4336C20.2936 11.4336 20.3855 11.3023 20.7137 10.3045L21.0288 9.35923H22.0528H23.0768L23.3657 10.2651C23.5495 10.8296 23.7201 11.2104 23.812 11.3023C23.9827 11.4729 24.2453 11.4861 24.4422 11.3417C24.7704 11.1185 24.7836 11.171 23.6151 7.67876C22.9587 5.69633 22.4861 4.37034 22.4073 4.27844C22.2497 4.10776 21.869 4.09464 21.6983 4.25218ZM22.4073 7.36367L22.7224 8.30893H22.0659H21.4095L21.7246 7.36367C21.8953 6.83852 22.0528 6.41841 22.0791 6.41841C22.1053 6.41841 22.2366 6.83852 22.4073 7.36367Z" fill="black"/>
<path d="M7.66391 6.53658C7.50637 6.60223 7.38821 6.8648 7.27005 7.33743C7.23067 7.50811 7.16503 7.66565 7.11251 7.69191C7.06 7.71816 6.74491 7.67878 6.40356 7.61313C5.61584 7.48185 5.51082 7.48185 5.34014 7.67878C5.16947 7.87571 5.15634 8.13828 5.32701 8.33521C5.4583 8.50588 5.90467 8.62404 6.63988 8.71594L7.00748 8.75533L6.9681 9.21483C6.95497 9.46427 6.92871 9.77936 6.92871 9.92378C6.92871 10.1732 6.92871 10.1732 6.42982 10.4489C4.9069 11.2892 4.47365 12.5758 5.37953 13.5735C5.74713 13.9805 6.04909 14.0987 6.65301 14.0593C7.46698 14.0068 8.32035 13.4685 9.10807 12.5233C9.4888 12.0637 10.119 11.066 10.2109 10.764C10.2503 10.6459 10.2896 10.6327 10.4472 10.659C10.7754 10.7246 11.1693 11.0003 11.3531 11.3023C11.5763 11.6568 11.6025 12.1688 11.4056 12.5364C11.1824 12.9696 10.4997 13.3766 9.69886 13.5342C9.14745 13.6523 8.91114 14.0987 9.23935 14.4532C9.3969 14.637 9.63321 14.637 10.1584 14.5057C11.1824 14.2431 12.0489 13.6654 12.364 13.009C13.0073 11.7093 12.3115 10.1338 10.9329 9.71372C10.7098 9.64808 10.6835 9.62182 10.7098 9.51679C10.8936 8.95226 10.3553 8.51901 9.92204 8.87349C9.83014 8.93913 9.75137 9.08354 9.72511 9.17544C9.6726 9.43802 9.54131 9.54305 9.26561 9.54305C9.0293 9.54305 8.29409 9.67433 8.08403 9.7531C7.99213 9.79249 7.979 9.75311 8.00526 9.31986C8.03152 9.04416 8.0709 8.79471 8.11029 8.75533C8.13655 8.71594 8.26783 8.67656 8.38599 8.67656C8.93739 8.67656 11.038 8.25644 11.55 8.03325C11.957 7.86258 11.9701 7.3243 11.5763 7.12737C11.3793 7.03547 11.3399 7.03547 10.6835 7.20615C9.98769 7.38995 8.68795 7.63939 8.42538 7.63939C8.28096 7.63939 8.28096 7.63939 8.37286 7.33743C8.47789 6.96983 8.43851 6.7729 8.22845 6.60223C8.05777 6.47094 7.90023 6.44468 7.66391 6.53658ZM9.02929 10.7771C8.87175 11.0922 8.32035 11.8668 8.26783 11.8668C8.24157 11.8668 8.21532 11.8537 8.21532 11.8143C8.21532 11.788 8.17593 11.578 8.12342 11.3417C8.0709 11.1054 8.05777 10.8953 8.08403 10.869C8.12342 10.8297 8.96365 10.5933 9.09494 10.5802C9.10807 10.5802 9.08181 10.6721 9.02929 10.7771ZM7.17815 11.9062C7.27006 12.2344 7.34883 12.5495 7.37508 12.602C7.4276 12.7333 6.86307 13.0221 6.54798 13.0221C6.07535 13.0221 5.81277 12.5495 6.03596 12.1163C6.12786 11.9325 6.8762 11.3154 6.98122 11.3023C7.00748 11.3154 7.08625 11.578 7.17815 11.9062Z" fill="black"/>
</svg>
